<svg width="1920" height="1080" viewBox="0 0 1920 1080" xmlns="http://www.w3.org/2000/svg"><rect width="1920" height="1080" fill="#3d1053"/><path d="M2687,3.999999999999816C2725.486835063948,157.09713952487746,2605.327310130867,355.8230714717117,2506.5333323392333,488.09070726490444C2407.7393545475998,620.3583430580971,2223.0026759737984,807.9841737396937,2094.236133250198,797.605814759156C1965.469590526597,787.2274557786184,1869.8981865626547,522.2180378912221,1733.9340759976285,425.82055338167845C1597.9699654326023,329.42306887213476,1328.2046107961417,323.5032950255866,1278.451469860041,219.220907701894C1228.6983289239404,114.93852037820137,1388.9904753576977,-59.41711047044021,1435.4152303810242,-199.87377056047734C1481.8399854043507,-340.3304306505145,1451.3631828551374,-537.8970454718823,1556.9999999999995,-623.5190528383288C1662.6368171448617,-709.1410602047753,1949.467412924273,-745.7769685848174,2069.2361332501973,-713.6058147591561C2189.0048535761216,-681.4346609334949,2172.6516774972442,-550.0930990108874,2275.6123219555448,-430.49212988436136C2378.5729664138453,-310.8911607578354,2648.513164936052,-149.0971395248778,2687,3.999999999999816C2725.486835063948,157.09713952487746,2605.327310130867,355.8230714717117,2506.5333323392333,488.09070726490444" fill="#df6688"/></svg>